<svg xmlns='http://www.w3.org/2000/svg' viewBox='0 0 220 220'><rect width='220' height='220' rx='46' fill='#e6dcc2'/><g fill='#af452e' transform='translate(30 24) scale(0.85)'><path d="M154.442 108.886C149.99 107.904 146.589 106.972 143.981 106.109C141.475 105.227 139.05 104.156 136.796 102.809C135.272 101.719 134.85 100.882 134.245 100.365C135.051 84.7152 133.093 65.1481 136.941 49.7563C131.682 39.1509 112.31 38.6911 102.221 37.1734C84.7195 37.1608 60.2401 39.5476 44.4201 47.5773L32.2906 55.7392C31.0121 62.5912 32.9456 66.4328 35.4332 72.4346C40.4903 86.636 39.9487 105.038 44.7917 119.227C43.3558 118.226 41.4664 116.727 39.533 115.077C35.3954 111.317 31.6482 107.129 28.3671 102.576C26.6793 100.233 25.1615 97.8776 23.7634 95.4151C24.1791 95.2577 24.5947 95.1065 25.0041 94.9428C25.3756 94.8042 25.6276 93.9666 25.6905 93.6706C25.8165 93.0913 25.8417 92.5119 25.7913 91.9199C25.7346 91.2586 25.5079 89.5708 24.5569 89.5771C24.3554 89.5771 24.1539 89.5897 23.9523 89.6086C24.8088 88.0278 24.7522 85.7984 23.6564 84.4444C23.6249 84.4003 23.5871 84.3562 23.5493 84.3185C23.5619 84.3059 23.5745 84.2933 23.5871 84.2744C25.193 82.3284 25.4701 79.5133 24.5254 77.202C23.8327 75.5205 22.3779 74.2987 20.5012 74.3932C19.9911 74.4184 19.4998 74.5191 19.0149 74.6451C19.7077 72.2016 20.35 69.7391 20.9483 67.2704C21.0428 67.1067 21.1121 66.924 21.1498 66.7603C21.7985 64.3797 22.422 61.9929 23.0329 59.5997C24.6892 53.9758 26.0306 48.2574 27.0257 42.4761C27.5295 40.1207 28.0081 37.7654 28.4678 35.4037C29.0976 32.173 29.8471 28.9044 30.1053 25.617C30.3887 22.1154 30.0549 18.406 27.964 15.4587C27.7877 15.2131 27.6113 15.1879 27.4539 15.276C27.2713 15.1375 27.0634 15.1249 26.8808 15.4461C20.35 26.6876 14.8647 38.5211 10.557 50.7892C9.32264 54.297 8.18904 57.8427 7.14361 61.4135C6.97357 61.9929 6.94208 63.9641 7.86785 64.0334C10.8278 64.2475 13.7563 64.7135 16.6217 65.4441C15.2551 66.8233 14.512 68.6496 14.0271 70.583C14.0082 70.5704 13.9893 70.5515 13.9641 70.5452C12.6982 69.758 10.727 68.6055 9.40451 69.8462C8.47244 70.7216 8.33389 72.2331 8.51023 73.4359C8.51652 73.4737 8.52282 73.5115 8.52912 73.5493C7.80488 73.0707 7.10582 72.5479 6.43196 72.0441C6.25563 71.9434 6.08559 71.9434 5.91555 72.0567C4.46706 72.8628 3.5161 73.9775 3.37755 75.6968C3.32716 76.3203 3.35236 76.9627 3.47831 77.561C3.10674 77.498 2.72888 77.498 2.35101 77.6113C0.436489 78.1844 -0.0736302 80.5335 0.0082408 82.278C0.102707 84.2429 1.02218 86.1763 2.89262 86.9761C4.24664 87.5555 5.80219 87.5807 7.07434 88.3679C6.58311 90.8052 6.35639 93.255 6.36269 95.7237C6.00371 96.4606 5.71402 97.2289 5.58176 98.0413C5.32985 99.5717 5.46211 101.467 6.67758 102.582C6.84762 102.733 7.03655 102.872 7.23808 102.985C7.30105 103.048 7.37033 103.105 7.4459 103.136C7.54037 103.18 7.61594 103.187 7.69152 103.18C8.0253 103.287 8.37797 103.319 8.70546 103.25C8.80622 103.275 8.91958 103.3 9.03294 103.306C9.83905 103.376 11.0986 103.558 11.6339 102.821C12.2322 102.003 12.2385 100.617 12.4022 99.6472C12.6919 97.9468 12.9816 96.2464 13.2713 94.5523C13.4603 94.5523 13.6429 94.5523 13.8318 94.5397C13.8192 94.7539 13.8192 94.9365 13.8255 95.0688C13.857 95.7867 14.0208 97.7516 15.0914 97.7768C15.4063 97.7831 15.7149 97.7642 16.0172 97.7327C16.1557 97.8776 16.3195 97.972 16.4895 97.9153C16.9303 97.7768 17.3712 97.6382 17.8057 97.4934C17.9128 97.8335 18.0576 98.161 18.2592 98.4506C22.5102 104.503 27.0823 110.322 31.9631 115.877C33.6005 117.734 35.2694 119.567 36.9761 121.368L38.1349 122.332C40.3328 124.612 41.1893 126.501 42.8645 127.842C43.7273 128.46 44.5083 129.001 45.2199 129.499C45.8812 130.078 46.5613 130.651 47.2478 131.205C47.5942 131.482 47.9531 132.056 48.3121 132.326C48.3247 132.333 48.3247 132.339 48.331 132.345C48.501 132.597 50.3148 135.374 53.344 140.274C59.3836 147.636 64.6422 153.109 73.7866 156.749H81.7973L80.7519 172.846C70.0835 174.906 71.1667 171.99 72.1429 183.326C66.6575 182.784 60.958 184.686 57.0912 188.641C54.5028 194.315 55.246 195.354 57.0912 201.066C65.6184 200.097 84.9966 200.506 93.7001 201.066L94.6763 173.514L90.0348 172.84L90.5575 156.743H98.6439L105.458 169.244L99.3177 173.514L108.374 199.341C116.504 196.06 135.442 188.943 143.339 185.561C145.197 180.542 144.164 179.358 142.212 174.78L137.722 171.032C135.624 170.995 123.948 173.23 122.601 171.032C126.266 168.633 123.816 168.331 122.601 165.043L114.665 167.216L109.048 154.117L114.665 153.14L128.143 146.181C136.808 135.343 135.228 122.042 134.654 109.151C136.204 109.913 137.91 110.75 139.712 111.569C139.85 111.607 139.989 111.638 140.134 111.67C141.947 112.715 143.811 113.71 145.827 114.308C148.125 114.989 150.5 115.14 152.893 115.02C153.39 114.995 153.894 114.957 154.392 114.919C154.499 112.917 154.492 110.901 154.486 108.899L154.442 108.886ZM23.31 26.4546C23.31 26.4546 23.3163 26.4861 23.3226 26.505C23.3037 26.5176 23.2848 26.5302 23.2596 26.5428C23.2722 26.5176 23.2848 26.4861 23.3037 26.4546H23.31ZM23.1336 80.1682C23.1777 80.2438 23.2029 80.3005 23.1903 80.3005C23.1588 80.3131 23.1399 80.2501 23.1336 80.1682ZM123.709 46.9727C99.3303 43.8175 71.3745 47.7221 47.865 54.467L36.3338 59.7824C54.0053 42.854 101.257 38.8801 123.709 46.979V46.9727ZM68.5279 62.0307H68.5342C73.182 61.256 84.1779 61.1805 88.9768 61.2812C91.5022 61.1553 97.0064 60.6011 99.387 59.7824C99.7712 54.5363 98.8391 56.5516 94.7455 56.1863C89.2854 58.1324 82.0241 58.7936 76.2553 58.6614L73.0308 59.3352C72.2814 57.8678 72.3948 57.8238 73.8559 57.1625C77.6723 57.3829 85.2233 56.8917 88.9768 56.1863C91.8927 55.1787 97.8063 54.5426 100.886 54.8449C102.914 57.3955 101.705 58.2079 100.659 60.7585L96.3893 62.629C84.7699 64.0208 70.0772 63.328 58.4263 64.8773C55.819 63.6114 54.1124 64.5939 54.6099 60.7585L60.07 57.1625C68.276 54.8134 85.0596 51.4126 93.5301 50.8773C94.3677 51.2741 113.929 49.7185 113.223 52.225C110.244 53.4594 100.647 52.5714 97.3528 52.8233C91.4455 52.8611 79.6624 53.8373 73.8433 54.8449C70.348 55.9092 59.0246 58.3906 57.0723 62.0307C59.9504 63.7689 65.3539 62.1692 68.5279 62.0307ZM129.251 119.674C128.766 124.7 126.663 134.524 123.936 138.845L112.335 144.683C103.015 146.918 84.3038 148.556 74.7501 147.825C58.6782 137.837 53.5267 126.318 48.7718 108.741C46.1583 95.031 45.3648 77.5736 37.6878 65.4629C67.5077 73.8705 102.076 66.7666 130.227 55.4306C127.639 74.9852 128.199 99.981 129.251 119.668V119.674Z"/>
<path d="M105.439 113.603C103.903 115.341 100.508 118.484 98.625 119.825C95.621 120.543 89.3421 121.419 86.2688 121.097C81.8667 119.428 78.3651 119.542 76.0098 114.655V114.132C73.371 113.351 74.4479 117.671 74.2149 119L76.0098 122.294C80.8905 127.54 89.7074 125.89 95.9989 125.065C98.1905 124.473 102.372 122.71 104.01 121.097C106.365 118.119 108.601 113.439 107.606 109.566C106.315 109.824 105.704 112.595 105.433 113.609L105.439 113.603Z"/>
<path d="M124.767 76.3581C124.679 75.7346 124.137 75.2812 123.514 75.3064C121.977 75.3694 120.409 75.2497 118.74 75.1112C115.679 74.8655 112.209 74.5947 107.391 75.2749C101.358 76.1314 97.5858 78.0459 94.2606 79.74C91.6281 81.0814 89.3546 82.2339 86.5017 82.6433C83.6488 83.0463 81.1423 82.5677 78.2453 82.0072C74.5737 81.3019 70.4172 80.502 64.3903 81.3585C59.5725 82.0387 56.3102 83.2668 53.4384 84.35C51.8766 84.942 50.4029 85.4899 48.9103 85.8614C48.2995 86.0126 47.9027 86.5983 47.9909 87.2218L48.3058 89.4764C48.375 89.9802 48.7592 90.3958 49.2567 90.4966L50.5226 90.7737C50.743 90.8241 50.913 91.0004 50.9445 91.2271L51.738 96.8385C52.6575 103.363 58.716 107.916 65.2405 106.997L70.3165 106.279C74.5863 105.674 78.3272 103.042 80.3299 99.2379C81.8288 96.3913 82.9183 93.1794 83.5796 89.6905C83.907 87.9712 85.2674 86.6487 86.9803 86.3968L87.0622 86.3842C88.7815 86.1511 90.463 87.0454 91.2502 88.601C92.8499 91.7687 94.7896 94.5524 97.019 96.8699C99.9978 99.9684 104.324 101.461 108.594 100.856L113.67 100.138C120.195 99.219 124.748 93.1606 123.822 86.6361L123.029 81.0248C122.997 80.8043 123.104 80.5776 123.306 80.4769L124.452 79.8597C124.899 79.6141 125.157 79.1165 125.082 78.6127L124.761 76.3581H124.767Z"/>
<path d="M186.246 48.1945H186.265C186.113 47.9488 185.918 47.7788 185.654 47.7788C184.822 47.7662 184.772 49.4918 184.766 49.9641C184.741 51.9857 184.627 53.9947 184.451 56.0037C184.01 57.7797 183.84 59.6438 183.594 61.4576C183.531 61.9236 183.456 62.3896 183.349 62.862C182.687 64.5435 181.844 66.1557 180.842 67.6546C180.767 67.7238 180.685 67.7931 180.597 67.8561C180.383 68.0198 180.263 68.278 180.2 68.5677C179.639 69.3298 179.041 70.0666 178.405 70.7594C177.794 69.8966 177.208 69.0023 176.749 68.045C176.415 67.3586 176.176 66.6532 176.006 65.9227C175.842 65.1795 175.754 64.4175 175.716 63.6366C175.678 62.7738 175.665 61.5961 175.665 60.3869C175.684 59.2281 175.716 58.0694 175.703 56.9169C175.722 55.7266 175.747 54.8701 175.747 54.7945C175.974 53.3964 176.169 51.992 176.257 50.5687C176.283 50.1531 176.302 49.4351 176.15 48.8368C176.05 48.3708 175.861 47.9551 175.502 47.7914C175.143 47.6277 174.891 47.8292 174.708 48.1378C174.33 48.5093 174.078 49.158 174.053 49.4603C173.789 53.6294 172.636 57.6663 172.233 61.8165C172.013 64.09 172 66.4202 172.353 68.6937C172.454 69.6195 172.643 70.52 172.964 71.3828C173.279 72.2267 173.839 72.9384 174.23 73.7445C174.374 74.0468 175.741 75.552 176.484 75.9865C176.39 76.4588 176.295 76.9375 176.207 77.4098C173.978 85.8866 171.755 94.3634 169.525 102.846C169.028 102.765 168.543 102.979 168.058 103.212C165.299 104.515 162.547 105.851 159.801 107.179C159.852 106.594 159.833 105.983 159.688 105.41C159.606 105.026 159.468 104.667 159.266 104.345C158.838 103.703 158.29 103.678 157.912 104.194C157.251 103.791 156.728 104.843 156.577 105.473C156.294 106.631 156.149 107.822 156.136 109.018C155.576 108.911 155.021 108.792 154.455 108.678C154.461 110.971 154.461 113.263 154.348 115.549C154.36 115.549 154.373 115.549 154.385 115.549C154.385 115.593 154.385 115.644 154.379 115.681C154.543 115.662 154.707 115.644 154.864 115.631C154.864 116.254 154.908 117.029 155.065 117.659C155.261 118.547 155.651 119.189 156.407 118.799C157.213 118.383 157.83 117.716 158.258 116.941C158.378 117.136 158.504 117.331 158.636 117.527C158.957 117.986 159.556 117.986 159.845 117.501C159.883 117.438 159.915 117.375 159.946 117.312C161.59 118.402 163.158 119.724 164.796 120.871C164.55 121.815 164.298 122.76 164.052 123.705C163.851 124.486 163.876 125.367 164.052 126.155C164.071 126.249 164.096 126.362 164.128 126.488C164.254 127.055 164.506 127.924 165.142 127.899C165.866 128.151 166.527 128.371 167.258 128.623C168.473 129.587 168.858 128.346 169.078 127.622C169.494 126.217 169.89 124.8 170.256 123.383C170.835 123.484 171.433 123.535 172.057 123.516C173.184 123.484 174.349 123.188 175.325 122.615C176.78 121.771 177.259 120.197 177.177 118.603C177.624 118.591 178.071 118.566 178.525 118.515C179.576 118.415 179.69 116.494 179.658 115.738C179.646 115.467 179.602 114.9 179.469 114.352C179.337 113.748 179.104 113.137 178.695 112.948C178.934 112.614 179.091 112.211 179.192 111.789C179.4 110.914 179.45 109.743 179.192 108.703C178.966 107.658 178.449 106.726 177.498 106.304C176.377 105.806 175.011 105.712 173.738 105.775C173.864 105.548 173.946 105.296 173.984 105.076C175.319 96.7817 176.786 88.5128 178.386 80.2627C178.707 79.0472 179.022 77.8255 179.343 76.61C184.621 73.1273 186.372 66.6217 186.485 60.4562C186.624 59.1715 186.705 57.8678 186.724 56.5705C186.75 56.1989 186.781 55.8274 186.806 55.4495C187.052 54.9897 187.014 51.2552 187.027 50.046C187.033 49.6241 186.743 48.6668 186.258 48.1945H186.246Z"/>
<path d="M82.5907 26.4546C83.5354 27.4308 83.9007 28.5518 83.9322 29.7295C84.1589 31.6503 83.7054 33.653 82.9497 35.4415C83.315 35.1329 83.718 34.8684 84.0581 34.5284C84.0581 34.5095 84.0707 34.4969 84.077 34.4843C85.664 31.814 86.8795 28.7281 85.79 25.6548C85.2862 24.2441 84.2974 23.0097 83.9133 21.555C83.6866 20.6733 84.1085 20.0813 84.7572 19.4137C86.3379 17.8015 88.5106 16.8631 89.9024 15.0494C91.6469 12.7633 91.5084 9.65218 89.682 7.47315C88.5232 6.08134 86.9677 5.08629 85.5129 4.04087C83.6614 2.71204 81.8098 1.38951 79.952 0.0606769C79.8638 -0.00230072 79.7819 -0.0148963 79.7001 0.0165926C79.8071 0.438543 79.9394 0.8416 80.0905 1.24466C80.4495 1.81146 80.8714 2.34677 81.2493 2.88208C82.0176 3.97159 82.7797 5.0674 83.3843 6.26398C83.6677 6.82448 83.9259 7.45426 84.0581 8.09663C84.2596 8.48709 84.436 8.88385 84.5745 9.3058C84.8957 10.2883 85.0217 11.3778 84.6816 12.3791C84.2659 13.6135 83.2835 14.2873 82.1688 14.8352C80.9722 15.4272 79.9268 16.1452 79.2277 17.3103C78.4909 18.532 78.1823 20.0561 78.4594 21.4605C78.9128 23.8096 81.073 24.8865 82.597 26.4735L82.5907 26.4546ZM81.6146 18.6265C81.6146 18.6265 81.6146 18.6895 81.6146 18.7273C81.5894 18.7147 81.5705 18.7084 81.539 18.6958C81.5642 18.6706 81.5894 18.6517 81.6146 18.6265Z"/>
<path d="M67.0922 16.9954V17.008C68.1691 16.9198 69.2397 17.0835 70.2662 17.7448C71.0913 18.2738 71.8974 19.1114 71.784 20.1757C71.7714 20.2828 71.7525 20.3836 71.721 20.4717C71.6832 20.7111 71.6077 20.9504 71.4943 21.1897C71.4376 21.4731 71.3117 21.7628 71.1479 22.084C70.3607 23.6458 69.2838 25.258 69.7561 27.097C70.2977 29.2193 72.5712 29.3579 74.3724 29.5468C75.4871 29.6602 76.5766 29.9499 77.2631 30.9008C77.2757 30.9197 77.2883 30.9323 77.3008 30.9512C77.326 30.9827 77.3512 31.0142 77.3764 31.0583C77.3827 31.0709 77.389 31.0835 77.3953 31.0961C77.578 31.3858 77.7165 31.7007 77.7795 32.0218C78.0314 32.9476 77.9369 33.8671 77.7795 34.8684C78.0314 34.8684 78.1825 34.415 78.2392 34.2324C78.2518 34.1883 78.2644 34.1505 78.2833 34.1064C78.4407 33.7537 78.5541 33.3696 78.6234 32.9791C79.1902 30.9512 79.4988 28.7596 78.5226 26.8199C78.0503 25.8752 77.282 25.2769 76.3562 24.8046C75.5501 24.3953 74.4857 23.9985 74.0701 23.1231C73.7237 22.3926 74.2275 21.5298 74.4795 20.8496C74.8636 19.8231 75.1848 18.7525 75.1092 17.644C74.9581 15.358 72.8924 14.0858 70.7386 14.174C69.3783 14.2307 68.0305 14.6526 66.7521 15.0997C65.6563 15.4839 64.5983 15.9562 63.5717 16.4916C63.2946 16.5986 63.0364 16.7372 62.7782 16.9198C62.7782 16.9198 62.7341 16.9576 62.7089 16.9702C64.1637 16.8127 65.6437 16.7246 67.0859 16.9891L67.0922 16.9954Z"/></g></svg>